<svg xmlns="http://www.w3.org/2000/svg"  viewBox="0 0 16 16" width="16px" height="16px"><path d="M 12.736328 2.7402344 A 0.50005 0.50005 0 0 0 12.289062 3.0039062 L 11.220703 4.8828125 C 10.227282 4.4425367 9.1553577 4.15625 8 4.15625 C 6.8446423 4.15625 5.7727177 4.4425367 4.7792969 4.8828125 L 3.7109375 3.0039062 A 0.50005 0.50005 0 0 0 3.2558594 2.7441406 A 0.50005 0.50005 0 0 0 2.8417969 3.4980469 L 3.9316406 5.4160156 C 1.799127 6.7035252 0.2374068 8.8459191 -0.001953125 11.455078 A 0.50005 0.50005 0 0 0 0.49414062 12 L 15.505859 12 A 0.50005 0.50005 0 0 0 16.001953 11.455078 C 15.762593 8.8459191 14.200873 6.7035252 12.068359 5.4160156 L 13.158203 3.4980469 A 0.50005 0.50005 0 0 0 12.736328 2.7402344 z M 8 5.15625 C 11.474409 5.15625 14.271434 7.6961188 14.851562 11 L 1.1484375 11 C 1.7285656 7.6961188 4.5255906 5.15625 8 5.15625 z M 4.5488281 7.875 C 4.2038281 7.875 3.9238281 8.156 3.9238281 8.5 C 3.9238281 8.845 4.2048281 9.125 4.5488281 9.125 C 4.8938281 9.125 5.1738281 8.844 5.1738281 8.5 C 5.1738281 8.155 4.8928281 7.875 4.5488281 7.875 z M 11.451172 7.875 C 11.106172 7.875 10.826172 8.156 10.826172 8.5 C 10.826172 8.845 11.107172 9.125 11.451172 9.125 C 11.795172 9.125 12.075172 8.844 12.076172 8.5 C 12.076172 8.155 11.795172 7.875 11.451172 7.875 z"/></svg>